# xmcd
# 
# Track frame offsets:
#     150
#     27766
#     67235
#     109461
#     145950
#     172892
#     192311
#     218586
#     247709
#     267019
# 
# Disc length: 4242
# 
# Revision: 3
# Processed by: cddbd v1.5.2PL0 Copyright (c) Steve Scherf et al.
# Submitted via: fre:ac v1.0.27
# 
DISCID=8b10900a
DTITLE=Henrik Freischlader - Night Train To Budapest Farewell Tour (Live 2014)
DYEAR=2014
DGENRE=Blues
TTITLE0=A Better Man
TTITLE1=Too Cool For Me
TTITLE2=Disappointed Women
TTITLE3=Keep Playin'
TTITLE4=Everything Is Gone
TTITLE5=Point Of View
TTITLE6=Gimme You All You Got
TTITLE7=She Ain't Got The Blues
TTITLE8=Guitar Intro
TTITLE9=Desert Love
EXTD=
EXTT0=
EXTT1=
EXTT2=
EXTT3=
EXTT4=
EXTT5=
EXTT6=
EXTT7=
EXTT8=
EXTT9=
PLAYORDER=
